<svg width="14" height="11" viewBox="0 0 14 11" fill="none" xmlns="http://www.w3.org/2000/svg">
<path fill-rule="evenodd" clip-rule="evenodd" d="M6.66723 0.25102C6.39224 -0.0576903 5.91851 -0.0854903 5.60914 0.18891L0.25155 4.94103C0.09155 5.08295 0 5.28638 0 5.5C0 5.7136 0.09155 5.917 0.25155 6.059L5.60914 10.8111C5.91851 11.0855 6.39224 11.0577 6.66723 10.749C6.94223 10.4403 6.91436 9.9676 6.60499 9.6932L2.72074 6.2479H13.2505C13.6644 6.2479 14 5.913 14 5.5C14 5.08696 13.6644 4.75213 13.2505 4.75213H2.72074L6.60499 1.30685C6.91436 1.03244 6.94223 0.55973 6.66723 0.25102Z" fill="black"/>
</svg>
