<svg width="20" height="20" viewBox="0 0 20 20" fill="none" xmlns="http://www.w3.org/2000/svg">
<path d="M11.4909 7.25C11.4909 8.11375 10.7028 9 9.49265 9C8.28251 9 7.49438 8.11375 7.49438 7.25C7.49438 6.38625 8.28251 5.5 9.49265 5.5C10.7028 5.5 11.4909 6.38625 11.4909 7.25Z" fill="white"/>
<path fill-rule="evenodd" clip-rule="evenodd" d="M1 8C1 4.70017 1 3.05025 2.02424 2.02513C3.04847 1 4.69696 1 7.99393 1H10.9913C14.2883 1 15.9368 1 16.961 2.02513C17.4441 2.5086 17.6993 3.13105 17.8342 4H17.1728C16.62 4 16.212 4.31416 15.9808 4.63652C15.7484 4.96053 15.6357 5.35741 15.6357 5.75C15.6357 6.14259 15.7484 6.53947 15.9808 6.86348C16.212 7.18584 16.62 7.5 17.1728 7.5H17.9851C17.9853 7.66233 17.9851 7.32895 17.9851 7.5L17.9853 8.25H17.1728C16.62 8.25 16.212 8.56416 15.9808 8.88652C15.7484 9.21053 15.6357 9.6074 15.6357 10C15.6357 10.3926 15.7484 10.7895 15.9808 11.1135C16.212 11.4358 16.62 11.75 17.1728 11.75H17.9853C17.9853 11.9211 17.9853 12.3377 17.9851 12.5H17.1728C16.62 12.5 16.212 12.8142 15.9808 13.1365C15.7484 13.4605 15.6357 13.8574 15.6357 14.25C15.6357 14.6426 15.7484 15.0395 15.9808 15.3635C16.212 15.6858 16.62 16 17.1728 16H17.8342C17.6993 16.869 17.4441 17.4914 16.961 17.9749C15.9368 19 14.2883 19 10.9913 19H7.99393C4.69696 19 3.04847 19 2.02424 17.9749C1 16.9497 1 15.2998 1 12V8Z" fill="white"/>
<path fill-rule="evenodd" clip-rule="evenodd" d="M16.4397 5.75C16.4397 5.33579 16.7752 5 17.1891 5H18.2507C18.6645 5 19 5.33579 19 5.75C19 6.16421 18.6645 6.5 18.2507 6.5H17.1891C16.7752 6.5 16.4397 6.16421 16.4397 5.75Z" fill="white"/>
<path fill-rule="evenodd" clip-rule="evenodd" d="M16.4397 10C16.4397 9.58579 16.7752 9.25 17.1891 9.25H18.2507C18.6645 9.25 19 9.58579 19 10C19 10.4142 18.6645 10.75 18.2507 10.75H17.1891C16.7752 10.75 16.4397 10.4142 16.4397 10Z" fill="white"/>
<path fill-rule="evenodd" clip-rule="evenodd" d="M16.4397 14.25C16.4397 13.8358 16.7752 13.5 17.1891 13.5H18.2507C18.6645 13.5 19 13.8358 19 14.25C19 14.6642 18.6645 15 18.2507 15H17.1891C16.7752 15 16.4397 14.6642 16.4397 14.25Z" fill="white"/>
</svg>
