<svg width="20" height="20" viewBox="0 0 20 20" fill="none" xmlns="http://www.w3.org/2000/svg">
<path fill-rule="evenodd" clip-rule="evenodd" d="M10.3205 2.51579C12.7291 2.51579 14.8735 3.64834 16.2465 5.41076L13.4391 5.20209C13.0207 5.171 12.6563 5.48417 12.6252 5.90159C12.594 6.31901 12.9079 6.6826 13.3262 6.7137L17.6367 7.03408C17.84 7.04919 18.0408 6.98217 18.194 6.84808C18.3473 6.714 18.4401 6.5241 18.4516 6.32107L18.6988 1.95857C18.7225 1.54067 18.4021 1.18273 17.9833 1.1591C17.5644 1.13547 17.2057 1.4551 17.182 1.87301L17.0604 4.01846C15.4087 2.16716 13.0016 1 10.3205 1C5.33865 1 1.30005 5.02944 1.30005 10C1.30005 14.9706 5.33865 19 10.3205 19C12.5159 19 14.5299 18.2165 16.094 16.9153C16.4162 16.6472 16.4596 16.1693 16.1909 15.8478C15.9223 15.5264 15.4433 15.4831 15.121 15.7511C13.8199 16.8336 12.1473 17.4842 10.3205 17.4842C6.1777 17.4842 2.81929 14.1334 2.81929 10C2.81929 5.86658 6.1777 2.51579 10.3205 2.51579Z" fill="white"/>
<path d="M5.41846 11.7661C5.51644 11.8231 5.62581 11.8732 5.74658 11.9165C5.86735 11.9598 5.99154 11.9963 6.11914 12.0259C6.24902 12.0532 6.37891 12.0749 6.50879 12.0908C6.64095 12.1045 6.76628 12.1113 6.88477 12.1113C7.14909 12.1113 7.38721 12.0771 7.59912 12.0088C7.81331 11.9404 7.99788 11.8436 8.15283 11.7183C8.30778 11.5929 8.43083 11.4437 8.52197 11.2705C8.6154 11.0951 8.6735 10.9014 8.69629 10.6895C8.5778 10.7829 8.44678 10.8638 8.30322 10.9321C8.15967 11.0005 8.007 11.0575 7.84521 11.103C7.68571 11.1463 7.52051 11.1794 7.34961 11.2021C7.18099 11.2227 7.01123 11.2329 6.84033 11.2329C6.50765 11.2329 6.20459 11.193 5.93115 11.1133C5.65999 11.0335 5.42757 10.9185 5.23389 10.7681C5.0402 10.6177 4.88981 10.4354 4.78271 10.2212C4.6779 10.0047 4.62549 9.75977 4.62549 9.48633C4.62549 9.21745 4.6779 8.96794 4.78271 8.73779C4.88981 8.50765 5.04704 8.30827 5.25439 8.13965C5.46175 7.96875 5.71924 7.83545 6.02686 7.73975C6.33447 7.64176 6.69108 7.59277 7.09668 7.59277C7.49089 7.59277 7.85091 7.6429 8.17676 7.74316C8.5026 7.84342 8.78174 7.99951 9.01416 8.21143C9.24658 8.42334 9.4266 8.69336 9.5542 9.02148C9.68408 9.34733 9.74902 9.73698 9.74902 10.1904C9.74902 10.6758 9.67611 11.0996 9.53027 11.4619C9.38672 11.8219 9.18848 12.1216 8.93555 12.3608C8.6849 12.6001 8.38867 12.779 8.04688 12.8975C7.70508 13.016 7.33594 13.0752 6.93945 13.0752C6.77311 13.0752 6.59993 13.0649 6.41992 13.0444C6.24219 13.0239 6.06559 12.9932 5.89014 12.9521C5.71468 12.9111 5.54492 12.8599 5.38086 12.7983C5.21908 12.7368 5.07096 12.6662 4.93652 12.5864L5.41846 11.7661ZM5.70898 9.46924C5.70898 9.58089 5.73291 9.68571 5.78076 9.78369C5.82861 9.88167 5.90267 9.96712 6.00293 10.04C6.10547 10.1107 6.23649 10.1676 6.396 10.2109C6.5555 10.252 6.74805 10.2725 6.97363 10.2725C7.16276 10.2725 7.34163 10.2576 7.51025 10.228C7.67887 10.1984 7.83496 10.1574 7.97852 10.105C8.12207 10.0526 8.25195 9.99105 8.36816 9.92041C8.48665 9.84977 8.58805 9.7723 8.67236 9.68799C8.61768 9.31429 8.45361 9.03288 8.18018 8.84375C7.90674 8.65234 7.54785 8.55664 7.10352 8.55664C6.88021 8.55664 6.68197 8.57943 6.50879 8.625C6.33561 8.67057 6.18978 8.73438 6.07129 8.81641C5.9528 8.89616 5.86279 8.99186 5.80127 9.10352C5.73975 9.21517 5.70898 9.33708 5.70898 9.46924ZM9.93619 10.3169C9.93619 9.88623 10.0011 9.5 10.131 9.1582C10.2609 8.81641 10.4455 8.52702 10.6847 8.29004C10.924 8.05078 11.2145 7.86849 11.5563 7.74316C11.8981 7.61784 12.2809 7.55518 12.7047 7.55518C13.1286 7.55518 13.5114 7.61784 13.8532 7.74316C14.195 7.86849 14.4855 8.05078 14.7248 8.29004C14.964 8.52702 15.1486 8.81641 15.2785 9.1582C15.4084 9.5 15.4733 9.88623 15.4733 10.3169C15.4733 10.7476 15.4084 11.1338 15.2785 11.4756C15.1486 11.8174 14.964 12.1068 14.7248 12.3438C14.4855 12.5807 14.195 12.7619 13.8532 12.8872C13.5114 13.0125 13.1286 13.0752 12.7047 13.0752C12.2809 13.0752 11.8981 13.0125 11.5563 12.8872C11.2145 12.7619 10.924 12.5807 10.6847 12.3438C10.4455 12.1068 10.2609 11.8174 10.131 11.4756C10.0011 11.1338 9.93619 10.7476 9.93619 10.3169ZM11.0197 10.3135C11.0197 10.6051 11.0584 10.8626 11.1359 11.0859C11.2157 11.3092 11.3284 11.4972 11.4743 11.6499C11.6201 11.8003 11.7967 11.9154 12.0041 11.9951C12.2114 12.0726 12.445 12.1113 12.7047 12.1113C12.9645 12.1113 13.1981 12.0726 13.4054 11.9951C13.6128 11.9154 13.7894 11.8003 13.9352 11.6499C14.081 11.4972 14.1927 11.3092 14.2702 11.0859C14.3499 10.8626 14.3898 10.6051 14.3898 10.3135C14.3898 10.0241 14.3499 9.76888 14.2702 9.54785C14.1927 9.32454 14.081 9.13656 13.9352 8.98389C13.7894 8.83122 13.6128 8.71615 13.4054 8.63867C13.1981 8.55892 12.9645 8.51904 12.7047 8.51904C12.445 8.51904 12.2114 8.55892 12.0041 8.63867C11.7967 8.71615 11.6201 8.83122 11.4743 8.98389C11.3284 9.13656 11.2157 9.32454 11.1359 9.54785C11.0584 9.76888 11.0197 10.0241 11.0197 10.3135Z" fill="white"/>
<circle cx="16.5" cy="8.5" r="0.5" stroke="white" stroke-width="0.5"/>
</svg>
