<svg width="20" height="20" viewBox="0 0 20 20" fill="none" xmlns="http://www.w3.org/2000/svg">
<path fill-rule="evenodd" clip-rule="evenodd" d="M9.67947 2.51579C7.27085 2.51579 5.12644 3.64834 3.7534 5.41076L6.56084 5.20209C6.9792 5.171 7.34362 5.48417 7.37479 5.90159C7.40595 6.31901 7.09207 6.6826 6.6737 6.7137L2.36322 7.03408C2.15996 7.04919 1.95915 6.98217 1.80592 6.84808C1.65268 6.714 1.55989 6.5241 1.54838 6.32107L1.30116 1.95857C1.27748 1.54067 1.59783 1.18273 2.01669 1.1591C2.43554 1.13547 2.79429 1.4551 2.81797 1.87301L2.93955 4.01846C4.59121 2.16716 6.99834 1 9.67947 1C14.6613 1 18.6999 5.02944 18.6999 10C18.6999 14.9706 14.6613 19 9.67947 19C7.48405 19 5.47004 18.2165 3.90596 16.9153C3.58375 16.6472 3.54035 16.1693 3.80902 15.8478C4.07768 15.5264 4.55668 15.4831 4.87889 15.7511C6.18005 16.8336 7.85261 17.4842 9.67947 17.4842C13.8222 17.4842 17.1807 14.1334 17.1807 10C17.1807 5.86658 13.8222 2.51579 9.67947 2.51579Z" fill="white"/>
<path d="M4.41846 11.7661C4.51644 11.8231 4.62581 11.8732 4.74658 11.9165C4.86735 11.9598 4.99154 11.9963 5.11914 12.0259C5.24902 12.0532 5.37891 12.0749 5.50879 12.0908C5.64095 12.1045 5.76628 12.1113 5.88477 12.1113C6.14909 12.1113 6.38721 12.0771 6.59912 12.0088C6.81331 11.9404 6.99788 11.8436 7.15283 11.7183C7.30778 11.5929 7.43083 11.4437 7.52197 11.2705C7.6154 11.0951 7.6735 10.9014 7.69629 10.6895C7.5778 10.7829 7.44678 10.8638 7.30322 10.9321C7.15967 11.0005 7.007 11.0575 6.84521 11.103C6.68571 11.1463 6.52051 11.1794 6.34961 11.2021C6.18099 11.2227 6.01123 11.2329 5.84033 11.2329C5.50765 11.2329 5.20459 11.193 4.93115 11.1133C4.65999 11.0335 4.42757 10.9185 4.23389 10.7681C4.0402 10.6177 3.88981 10.4354 3.78271 10.2212C3.6779 10.0047 3.62549 9.75977 3.62549 9.48633C3.62549 9.21745 3.6779 8.96794 3.78271 8.73779C3.88981 8.50765 4.04704 8.30827 4.25439 8.13965C4.46175 7.96875 4.71924 7.83545 5.02686 7.73975C5.33447 7.64176 5.69108 7.59277 6.09668 7.59277C6.49089 7.59277 6.85091 7.6429 7.17676 7.74316C7.5026 7.84342 7.78174 7.99951 8.01416 8.21143C8.24658 8.42334 8.4266 8.69336 8.5542 9.02148C8.68408 9.34733 8.74902 9.73698 8.74902 10.1904C8.74902 10.6758 8.67611 11.0996 8.53027 11.4619C8.38672 11.8219 8.18848 12.1216 7.93555 12.3608C7.6849 12.6001 7.38867 12.779 7.04688 12.8975C6.70508 13.016 6.33594 13.0752 5.93945 13.0752C5.77311 13.0752 5.59993 13.0649 5.41992 13.0444C5.24219 13.0239 5.06559 12.9932 4.89014 12.9521C4.71468 12.9111 4.54492 12.8599 4.38086 12.7983C4.21908 12.7368 4.07096 12.6662 3.93652 12.5864L4.41846 11.7661ZM4.70898 9.46924C4.70898 9.58089 4.73291 9.68571 4.78076 9.78369C4.82861 9.88167 4.90267 9.96712 5.00293 10.04C5.10547 10.1107 5.23649 10.1676 5.396 10.2109C5.5555 10.252 5.74805 10.2725 5.97363 10.2725C6.16276 10.2725 6.34163 10.2576 6.51025 10.228C6.67887 10.1984 6.83496 10.1574 6.97852 10.105C7.12207 10.0526 7.25195 9.99105 7.36816 9.92041C7.48665 9.84977 7.58805 9.7723 7.67236 9.68799C7.61768 9.31429 7.45361 9.03288 7.18018 8.84375C6.90674 8.65234 6.54785 8.55664 6.10352 8.55664C5.88021 8.55664 5.68197 8.57943 5.50879 8.625C5.33561 8.67057 5.18978 8.73438 5.07129 8.81641C4.9528 8.89616 4.86279 8.99186 4.80127 9.10352C4.73975 9.21517 4.70898 9.33708 4.70898 9.46924ZM8.93619 10.3169C8.93619 9.88623 9.00113 9.5 9.13102 9.1582C9.2609 8.81641 9.44547 8.52702 9.68473 8.29004C9.92398 8.05078 10.2145 7.86849 10.5563 7.74316C10.8981 7.61784 11.2809 7.55518 11.7047 7.55518C12.1286 7.55518 12.5114 7.61784 12.8532 7.74316C13.195 7.86849 13.4855 8.05078 13.7248 8.29004C13.964 8.52702 14.1486 8.81641 14.2785 9.1582C14.4084 9.5 14.4733 9.88623 14.4733 10.3169C14.4733 10.7476 14.4084 11.1338 14.2785 11.4756C14.1486 11.8174 13.964 12.1068 13.7248 12.3438C13.4855 12.5807 13.195 12.7619 12.8532 12.8872C12.5114 13.0125 12.1286 13.0752 11.7047 13.0752C11.2809 13.0752 10.8981 13.0125 10.5563 12.8872C10.2145 12.7619 9.92398 12.5807 9.68473 12.3438C9.44547 12.1068 9.2609 11.8174 9.13102 11.4756C9.00113 11.1338 8.93619 10.7476 8.93619 10.3169ZM10.0197 10.3135C10.0197 10.6051 10.0584 10.8626 10.1359 11.0859C10.2157 11.3092 10.3284 11.4972 10.4743 11.6499C10.6201 11.8003 10.7967 11.9154 11.0041 11.9951C11.2114 12.0726 11.445 12.1113 11.7047 12.1113C11.9645 12.1113 12.1981 12.0726 12.4054 11.9951C12.6128 11.9154 12.7894 11.8003 12.9352 11.6499C13.081 11.4972 13.1927 11.3092 13.2702 11.0859C13.3499 10.8626 13.3898 10.6051 13.3898 10.3135C13.3898 10.0241 13.3499 9.76888 13.2702 9.54785C13.1927 9.32454 13.081 9.13656 12.9352 8.98389C12.7894 8.83122 12.6128 8.71615 12.4054 8.63867C12.1981 8.55892 11.9645 8.51904 11.7047 8.51904C11.445 8.51904 11.2114 8.55892 11.0041 8.63867C10.7967 8.71615 10.6201 8.83122 10.4743 8.98389C10.3284 9.13656 10.2157 9.32454 10.1359 9.54785C10.0584 9.76888 10.0197 10.0241 10.0197 10.3135Z" fill="white"/>
<circle cx="15.5" cy="8.5" r="0.5" stroke="white" stroke-width="0.5"/>
</svg>
